<?xml version="1.0" standalone="no"?>
<!DOCTYPE svg PUBLIC "-//W3C//DTD SVG 20010904//EN"
 "http://www.w3.org/TR/2001/REC-SVG-20010904/DTD/svg10.dtd">
<svg version="1.0" xmlns="http://www.w3.org/2000/svg"
 width="512.000000pt" height="512.000000pt" viewBox="0 0 512.000000 512.000000"
 preserveAspectRatio="xMidYMid meet">

<g transform="translate(0.000000,512.000000) scale(0.100000,-0.100000)"
fill="#000000" stroke="none">
<path d="M0 2560 l0 -2560 2560 0 2560 0 0 2560 0 2560 -2560 0 -2560 0 0
-2560z m2584 1364 c4 -14 6 -277 5 -584 -1 -307 2 -563 5 -568 3 -6 -22 -47
-56 -93 -35 -45 -78 -102 -95 -126 -23 -29 -38 -41 -49 -36 -8 3 -28 -3 -43
-15 -31 -22 -194 -106 -286 -147 -52 -23 -115 -35 -213 -39 -19 -1 -20 -3 -7
-13 11 -7 12 -13 6 -18 -6 -3 -11 -1 -11 5 0 8 -13 10 -39 5 -24 -4 -42 -2
-46 4 -7 12 -48 15 -59 4 -3 -4 -29 -6 -56 -4 -28 1 -63 -4 -82 -12 -18 -9
-44 -19 -58 -23 -14 -4 -30 -13 -36 -21 -8 -12 -28 5 -107 89 -53 56 -130 139
-172 183 -41 44 -75 83 -75 87 0 6 427 402 659 612 37 33 98 89 136 126 39 37
95 89 125 116 30 27 82 74 115 105 33 31 141 131 239 222 98 92 182 167 186
167 4 0 11 -12 14 -26z m513 -441 c-3 -10 -5 -2 -5 17 0 19 2 27 5 18 2 -10 2
-26 0 -35z m547 -912 c12 -5 30 -11 41 -13 16 -3 19 -11 18 -46 -1 -23 3 -40
8 -36 5 3 9 -2 9 -10 0 -12 5 -14 25 -6 20 8 23 7 18 -8 -6 -15 -5 -15 10 -3
10 8 15 16 12 19 -8 8 16 32 26 26 5 -3 9 0 9 5 0 6 5 11 11 11 6 0 9 -9 6
-20 -3 -11 -1 -18 4 -14 5 3 9 13 10 22 0 12 2 13 6 3 5 -11 7 -11 14 0 5 8 9
9 9 4 0 -6 -16 -26 -36 -44 -28 -27 -38 -31 -44 -20 -5 7 -12 10 -16 6 -4 -3
-1 -15 7 -24 13 -16 12 -17 -3 -4 -10 7 -25 11 -33 7 -9 -3 -13 -2 -10 4 3 6
-3 10 -13 10 -22 0 -34 -21 -38 -65 -2 -24 -1 -26 5 -10 5 11 7 23 4 27 -2 4
3 5 12 1 11 -4 13 -8 5 -13 -6 -3 -8 -14 -4 -23 3 -9 10 -14 15 -11 5 3 7 9 4
13 -2 5 4 16 14 26 17 14 19 15 17 1 -3 -21 -47 -67 -58 -60 -5 3 -7 1 -6 -4
2 -5 -48 -63 -111 -128 -228 -237 -995 -1006 -1012 -1015 -11 -6 -19 -5 -22 4
-53 126 -265 660 -283 711 -30 85 -31 144 -3 197 17 34 164 242 319 454 l37
50 498 -7 c305 -4 507 -11 519 -17z m241 -41 c-3 -5 -12 -10 -18 -10 -7 0 -6
4 3 10 19 12 23 12 15 0z m-2255 -250 c0 -5 -4 -10 -10 -10 -5 0 -10 5 -10 10
0 6 5 10 10 10 6 0 10 -4 10 -10z"/>
<path d="M3795 2480 c-3 -5 -1 -10 5 -10 6 0 9 -4 5 -9 -3 -5 -1 -12 4 -15 5
-3 11 1 14 8 7 18 -18 42 -28 26z"/>
</g>
</svg>
